<?xml version="1.0" encoding="UTF-8"?>
<!DOCTYPE svg PUBLIC "-//W3C//DTD SVG 1.1//EN" "http://www.w3.org/Graphics/SVG/1.1/DTD/svg11.dtd">
<!-- Creator: CorelDRAW (Versão de avaliação) -->
<svg xmlns="http://www.w3.org/2000/svg" xml:space="preserve" width="210mm" height="297mm" version="1.1" style="shape-rendering:geometricPrecision; text-rendering:geometricPrecision; image-rendering:optimizeQuality; fill-rule:evenodd; clip-rule:evenodd"
viewBox="0 0 21000 29700"
 xmlns:xlink="http://www.w3.org/1999/xlink"
 xmlns:xodm="http://www.corel.com/coreldraw/odm/2003">
 <defs>
  <style type="text/css">
   <![CDATA[
    .str0 {stroke:#373535;stroke-width:20;stroke-miterlimit:22.9256}
    .fil0 {fill:#373535}
    .fil1 {fill:#373535;fill-rule:nonzero}
   ]]>
  </style>
 </defs>
 <g id="Camada_x0020_1">
  <metadata id="CorelCorpID_0Corel-Layer"/>
  <g id="_105553264840096">
   <polygon class="fil0 str0" points="1969.63,7783.81 2420.68,7787.26 4277.95,3045.65 4029.75,2524.31 "/>
   <path class="fil0 str0" d="M6700.43 7786.46l-1002.19 -2097.23c137.47,-100.43 197.58,-352.55 213.8,-538.23l1264.08 2636.87 -475.69 -1.41z"/>
   <path class="fil1" d="M5586.31 4505.27c145.7,315.27 194.48,563.42 146.3,744.53 -70.35,401.03 -399.67,667.97 -810.22,739.84 -464.8,81.3 -1027.77,-81.06 -1325.82,-466.51l119.09 -303.99c525.04,627.4 2056.77,676.66 1476.61,-578.7l-1095.95 -2286.14 315.18 -804.55 248.56 520.38 -101.15 258.26 1027.4 2176.88z"/>
  </g>
 </g>
</svg>
