<?xml version="1.0" standalone="no"?>
<!DOCTYPE svg PUBLIC "-//W3C//DTD SVG 20010904//EN"
 "http://www.w3.org/TR/2001/REC-SVG-20010904/DTD/svg10.dtd">
<svg version="1.0" xmlns="http://www.w3.org/2000/svg"
 width="219.000000pt" height="255.000000pt" viewBox="0 0 219.000000 255.000000"
 preserveAspectRatio="xMidYMid meet">

<g transform="translate(0.000000,255.000000) scale(0.100000,-0.100000)"
fill="#000000" stroke="none">
<path d="M988 2320 l-57 -150 186 -387 c280 -588 266 -553 267 -654 1 -79 -1
-88 -27 -122 -34 -45 -65 -62 -144 -77 -114 -23 -290 30 -380 113 -24 22 -45
38 -47 36 -3 -2 -14 -27 -25 -56 l-20 -52 47 -46 c55 -55 147 -101 240 -120
271 -58 501 76 520 301 9 113 7 117 -296 757 l-151 317 20 48 20 48 -45 97
c-25 53 -47 97 -48 97 -2 0 -29 -68 -60 -150z"/>
<path d="M863 2010 c-38 -97 -729 -1859 -740 -1887 -4 -10 17 -13 84 -13 l89
0 352 898 352 899 -48 104 -49 104 -40 -105z"/>
<path d="M1610 1094 c0 -35 -29 -120 -53 -155 l-23 -34 189 -398 190 -397 88
0 c49 0 89 4 89 9 0 12 -460 974 -471 986 -5 5 -9 1 -9 -11z"/>
</g>
</svg>
